<svg width="180" height="84" viewBox="0 0 180 84" fill="none" xmlns="http://www.w3.org/2000/svg">
<path d="M1.7928 75.6474C1.89186 75.6536 2.0107 75.658 2.14221 75.6627C2.27263 75.6689 2.46941 75.6689 2.72229 75.6689C4.2085 75.6689 5.32316 75.4017 6.06627 74.8602C6.81172 74.3247 7.17979 73.5125 7.17979 72.4355C7.17979 71.355 6.87009 70.5756 6.24915 70.101C5.62599 69.6217 4.60333 69.3849 3.17652 69.3849C2.90512 69.3849 2.49747 69.4072 1.95818 69.4553L1.90798 69.4659C1.90798 69.9077 1.88818 70.6062 1.84396 71.5613C1.80205 72.5153 1.78123 73.2524 1.78123 73.7704L1.7928 75.6474ZM0.00957108 82.9568C0.0432467 81.8036 0.069978 80.6329 0.0921087 79.4422C0.115239 78.2456 0.125784 77.0444 0.125784 75.8232C0.125784 74.54 0.115852 73.3071 0.0921087 72.1152C0.068978 70.9234 0.0386419 69.7643 0 68.6404C0.175977 68.6733 0.350575 68.692 0.515987 68.7049C0.683712 68.7202 0.853739 68.7285 1.02497 68.7285C1.34655 68.7285 1.89387 68.704 2.66028 68.6559C3.4302 68.6032 4.03935 68.582 4.49244 68.582C5.97168 68.582 7.11544 68.8996 7.92613 69.536C8.73448 70.1747 9.13748 71.0759 9.13748 72.2408C9.13748 73.5944 8.64011 74.6374 7.64543 75.3711C6.65189 76.1023 5.23088 76.4703 3.38476 76.4703C3.19491 76.4703 2.96661 76.4642 2.69871 76.454C2.43325 76.4424 2.13264 76.4295 1.79253 76.4072L1.77934 79.4026C1.77934 79.8316 1.78926 80.3378 1.80906 80.9238C1.82886 81.5109 1.85791 82.1813 1.89656 82.936C1.66842 82.9028 1.49124 82.8822 1.37011 82.8679C1.24794 82.8611 1.13701 82.8513 1.03816 82.8513C0.884308 82.8513 0.718886 82.8613 0.547794 82.8812C0.37545 82.8978 0.193695 82.921 0.00734959 82.9563" fill="#231F20"/>
<path d="M13.3925 76.4551C13.4635 76.4551 13.6778 76.4585 14.0285 76.4599C14.3837 76.4692 14.6935 76.4705 14.9649 76.4705C15.1759 76.4705 15.5928 76.4692 16.2136 76.4599C16.8355 76.4585 17.3527 76.4551 17.7557 76.4551L17.4016 75.5316C17.3481 75.384 17.2058 75.0265 16.9706 74.4652C16.7365 73.9038 16.2823 72.8315 15.616 71.2564L13.3925 76.4551ZM9.51855 82.957C10.8161 80.0928 11.9902 77.4829 13.0303 75.1156C14.0751 72.7506 15.0477 70.5134 15.9457 68.3945H16.3463C17.3131 70.8392 18.2996 73.278 19.3072 75.7063C20.31 78.1322 21.3303 80.5499 22.3681 82.957C22.1852 82.9271 22.0105 82.8995 21.8463 82.8809C21.6773 82.8643 21.5168 82.8544 21.3536 82.8544C21.1882 82.8544 21.0228 82.8643 20.8493 82.8809C20.6792 82.8976 20.494 82.9231 20.296 82.957C20.0537 82.1941 19.7824 81.4159 19.4842 80.6237C19.1847 79.8326 18.868 79.0252 18.5291 78.2095L18.1738 77.3692C17.8697 77.3586 17.5414 77.347 17.1954 77.3387C16.8448 77.3325 16.3196 77.3294 15.616 77.3294C14.8951 77.3294 14.3604 77.3328 14.0098 77.3387C13.6569 77.347 13.3343 77.3586 13.0373 77.3692C12.703 78.1392 12.3641 78.9701 12.0228 79.8573C11.6803 80.7456 11.3018 81.7757 10.8883 82.957C10.7741 82.9231 10.6565 82.8972 10.5412 82.8809C10.426 82.8643 10.3117 82.8544 10.1988 82.8544C10.0951 82.8544 9.98779 82.8643 9.87157 82.8809C9.75965 82.8976 9.6387 82.9231 9.51855 82.957Z" fill="#231F20"/>
<path d="M24.3047 82.9586C24.3688 82.1734 24.4166 81.3085 24.4444 80.3569C24.4773 79.4041 24.4932 78.2075 24.4932 76.7637C24.4932 74.9097 24.4767 73.3182 24.4444 71.9939C24.418 70.6661 24.3687 69.554 24.3047 68.6562C24.442 68.6868 24.589 68.7055 24.7403 68.7219C24.8952 68.7372 25.0573 68.7455 25.2318 68.7455C25.4253 68.7455 25.6069 68.7372 25.7793 68.7219C25.9457 68.7056 26.1078 68.6867 26.2615 68.6562C26.2219 69.1074 26.1882 69.6161 26.1647 70.1845C26.1416 70.7493 26.1298 71.3705 26.1298 72.056V75.2519C26.143 75.2778 26.1562 75.2976 26.1717 75.3047C26.1882 75.3117 26.209 75.3153 26.2427 75.3153C26.5326 75.3153 27.2711 74.7141 28.4522 73.5093C29.6356 72.3069 31.0671 70.6885 32.7443 68.6564C32.8876 68.6869 33.0309 68.7056 33.1753 68.722C33.3196 68.7373 33.4804 68.7456 33.6563 68.7456C33.8356 68.7456 33.9976 68.7373 34.149 68.722C34.3039 68.7057 34.4508 68.6869 34.5916 68.6564C34.0547 69.0654 33.018 70.0533 31.4771 71.6155L31.0997 71.994L28.0457 75.027C29.0381 76.295 30.8446 78.4244 33.4548 81.4141L34.7943 82.9587C34.5685 82.9235 34.3575 82.8979 34.156 82.8836C33.9533 82.8637 33.76 82.8537 33.5771 82.8537C33.3883 82.8537 33.1963 82.8637 33.0052 82.8836C32.8108 82.8969 32.6115 82.9234 32.4077 82.9587C31.908 82.2637 31.4584 81.6508 31.0601 81.1176C30.6606 80.589 30.2983 80.1214 29.9734 79.7171L27.588 76.7462C27.276 76.3712 27.0102 76.1087 26.7936 75.9587C26.577 75.8099 26.3545 75.7266 26.1297 75.7149L26.1198 78.2065C26.1198 79.2202 26.1297 80.1026 26.1527 80.848C26.1759 81.5933 26.2076 82.2977 26.2505 82.9587C26.0712 82.9235 25.8976 82.8979 25.7321 82.8836C25.5631 82.8637 25.4073 82.8537 25.2523 82.8537C25.1067 82.8537 24.9565 82.8637 24.805 82.8836C24.6512 82.8969 24.4828 82.9233 24.3047 82.9586Z" fill="#231F20"/>
<path d="M36.4612 69.231C36.4544 68.9802 36.448 68.788 36.4414 68.6568C36.5834 68.6873 36.729 68.706 36.8782 68.7212C37.0274 68.7375 37.1856 68.7458 37.3581 68.7458C37.5585 68.7458 37.7378 68.7352 37.895 68.7176C38.0476 68.6989 38.1968 68.6766 38.34 68.6484C38.3136 70.431 38.2888 72.026 38.2759 73.4299C38.2593 74.8316 38.2561 75.7773 38.2561 76.2613C38.2561 77.5458 38.334 78.5197 38.4925 79.1783C38.6533 79.8322 38.9176 80.3866 39.2938 80.8378C39.67 81.3007 40.1534 81.6534 40.7381 81.8972C41.3217 82.1351 41.9786 82.2558 42.7101 82.2558C43.4333 82.2558 44.0961 82.1315 44.6948 81.8831C45.2911 81.6276 45.7757 81.2667 46.1496 80.7979C46.5211 80.3268 46.7843 79.7279 46.9357 78.9978C47.0896 78.2724 47.1652 77.0055 47.1652 75.2101C47.1652 74.0159 47.1618 72.8791 47.1454 71.7974C47.1289 70.7181 47.1104 69.6727 47.079 68.6566C47.1791 68.6872 47.2854 68.7059 47.39 68.7211C47.495 68.7374 47.6043 68.7456 47.722 68.7456C47.856 68.7456 47.9795 68.7373 48.0912 68.7187C48.2041 68.7024 48.3101 68.6836 48.4138 68.6566C48.3765 69.4922 48.351 70.2575 48.3369 70.9536C48.3171 71.6521 48.3105 72.1596 48.3105 72.4736V73.0127C48.3105 75.6789 48.2477 77.4942 48.1206 78.4634C47.9902 79.4291 47.77 80.1897 47.459 80.7393C46.978 81.5644 46.3129 82.1878 45.4626 82.6062C44.6124 83.0269 43.5839 83.2355 42.3784 83.2355C40.3168 83.2355 38.8166 82.7316 37.8685 81.7261C36.9215 80.7217 36.4439 79.1209 36.4439 76.9258C36.4439 76.8473 36.4605 76.3258 36.4895 75.3636C36.5159 74.4003 36.5338 73.485 36.5338 72.6131C36.5338 71.9603 36.5106 70.8306 36.4651 69.2309" fill="#231F20"/>
<path d="M54.951 82.9588C54.3919 81.1048 53.7652 79.0656 53.078 76.8389C52.3885 74.6158 51.5312 71.8863 50.5039 68.6565C50.6541 68.687 50.8067 68.7057 50.971 68.7221C51.1328 68.7374 51.3088 68.7457 51.4975 68.7457C51.685 68.7457 51.8609 68.7374 52.0216 68.7221C52.187 68.7058 52.3432 68.6869 52.4887 68.6565C53.0664 70.7859 53.6511 72.8684 54.2474 74.9134C54.8426 76.9585 55.4588 78.9742 56.0959 80.9653C56.8145 78.9836 57.4982 76.9655 58.1517 74.9134C58.8051 72.8602 59.4259 70.7753 60.0071 68.6565C60.1085 68.687 60.2145 68.7057 60.3228 68.7221C60.4301 68.7374 60.5463 68.7457 60.6687 68.7457C60.7992 68.7457 60.919 68.7374 61.0368 68.7221C61.1474 68.7058 61.2557 68.6869 61.3584 68.6565C61.9698 70.6663 62.6058 72.6821 63.2732 74.7025C63.9383 76.7241 64.6336 78.7421 65.3488 80.7614C66.0325 78.7832 66.6766 76.785 67.2811 74.7693C67.8844 72.7442 68.447 70.7085 68.9677 68.6565C69.0727 68.6834 69.176 68.7022 69.287 68.7185C69.3929 68.7372 69.5118 68.7454 69.641 68.7454C69.7774 68.7454 69.9055 68.7372 70.0208 68.7219C70.1419 68.7056 70.2502 68.6867 70.3551 68.6562C69.4046 71.4595 68.0337 75.5707 66.2423 80.9932L65.6017 82.9586C65.4864 82.932 65.3686 82.9094 65.2523 82.8951C65.1334 82.8818 65.0076 82.8785 64.8725 82.8785C64.7306 82.8785 64.6002 82.8819 64.4777 82.8951C64.3555 82.9084 64.2377 82.9303 64.1224 82.9586C63.6018 81.1596 63.0264 79.2928 62.3916 77.3591C61.7568 75.4242 61.058 73.3885 60.2927 71.2579C59.2095 74.5769 58.3604 77.154 57.7466 78.9974C57.1339 80.8397 56.6843 82.1593 56.4025 82.9586C56.2569 82.9234 56.1288 82.8978 56.0123 82.8835C55.898 82.8636 55.7864 82.8536 55.6768 82.8536C55.5662 82.8536 55.4497 82.8636 55.3297 82.8835C55.2062 82.8968 55.0825 82.9235 54.951 82.9588Z" fill="#231F20"/>
<path d="M79.1011 82.4476C80.8866 82.4476 82.2634 81.8734 83.2266 80.7307C84.1934 79.5799 84.6744 77.9497 84.6744 75.8226C84.6744 73.6604 84.1981 72.015 83.2511 70.8923C82.3053 69.7708 80.9216 69.2106 79.1011 69.2106C77.3062 69.2106 75.9236 69.7942 74.9534 70.9544C73.9867 72.1182 73.5044 73.7694 73.5044 75.9047C73.5044 78.0142 73.9855 79.6314 74.9511 80.7565C75.9143 81.8827 77.2992 82.4476 79.1011 82.4476ZM79.0943 83.2492C76.7193 83.2492 74.8453 82.5847 73.4743 81.2628C72.1034 79.9397 71.415 78.1325 71.415 75.8473C71.415 73.5936 72.1151 71.7947 73.5093 70.4446C74.9046 69.0957 76.7659 68.4219 79.0943 68.4219C81.4541 68.4219 83.3165 69.0875 84.6874 70.4224C86.0607 71.7607 86.7444 73.5679 86.7444 75.8473C86.7444 78.0575 86.0455 79.8447 84.6455 81.2042C83.2385 82.5648 81.3935 83.2492 79.0943 83.2492Z" fill="#231F20"/>
<path d="M89.3203 82.943C89.4111 81.0608 89.4765 79.0967 89.5253 77.0446C89.5742 74.989 89.6 72.8479 89.6 70.6165V68.3945H89.9808C91.4705 70.1243 93.0302 71.8693 94.6515 73.6202C96.2798 75.3758 98.1271 77.3024 100.202 79.4025C100.202 79.3346 100.205 79.2267 100.211 79.0826C100.235 78.3712 100.249 77.8591 100.249 77.5602C100.249 75.8773 100.232 74.28 100.201 72.7623C100.167 71.247 100.121 69.8829 100.06 68.6734C100.244 68.698 100.388 68.7168 100.478 68.7297C100.572 68.7359 100.66 68.745 100.74 68.745C100.819 68.745 100.914 68.7357 101.006 68.7297C101.105 68.7168 101.237 68.6982 101.404 68.6734C101.344 70.2661 101.297 71.8752 101.267 73.4983C101.234 75.125 101.215 76.7856 101.215 78.4814C101.215 79.092 101.222 79.7529 101.229 80.4538C101.235 81.1569 101.248 82.0851 101.266 83.2348H100.995C100.36 82.4367 99.6062 81.5495 98.7338 80.5721C97.8637 79.5936 96.8422 78.4849 95.6704 77.245L90.6422 71.9127C90.6354 72.0674 90.6158 72.467 90.5993 73.1034C90.5795 73.7468 90.5696 74.2566 90.5696 74.6445C90.5696 75.4941 90.5861 76.584 90.6175 77.9083C90.6504 79.2279 90.6944 80.9085 90.7571 82.943C90.635 82.913 90.5125 82.8915 90.3902 82.8772C90.2714 82.8605 90.1571 82.8539 90.0466 82.8539C89.936 82.8539 89.8218 82.8639 89.7112 82.8805C89.5983 82.8937 89.4678 82.918 89.3221 82.9426" fill="#231F20"/>
<path d="M122.969 82.3442C121.994 82.6302 121.04 82.8458 120.106 82.9946C119.169 83.1448 118.28 83.2195 117.433 83.2195C115.051 83.2195 113.163 82.5726 111.776 81.2753C110.386 79.9815 109.695 78.2353 109.695 76.0332C109.695 73.7139 110.442 71.8611 111.935 70.4735C113.427 69.0871 115.427 68.3945 117.932 68.3945C118.934 68.3945 119.865 68.5058 120.727 68.7309C121.585 68.9547 122.362 69.2911 123.052 69.7317C122.944 70.0528 122.85 70.3646 122.765 70.6657C122.686 70.9704 122.613 71.2716 122.557 71.5717C121.999 70.7677 121.314 70.1688 120.502 69.7716C119.688 69.379 118.72 69.1786 117.595 69.1786C115.841 69.1786 114.428 69.7868 113.353 71.0044C112.287 72.2162 111.751 73.8323 111.751 75.8504C111.751 77.8403 112.309 79.4377 113.423 80.6401C114.536 81.8425 116.011 82.446 117.848 82.446C118.435 82.446 119.008 82.3899 119.559 82.2736C120.111 82.153 120.664 81.976 121.223 81.7299C121.223 81.5986 121.233 81.2974 121.249 80.8169C121.273 80.3364 121.285 79.9555 121.285 79.6731C121.285 79.3461 121.275 78.9864 121.262 78.5938C121.246 78.2035 121.224 77.6679 121.196 76.9941C121.434 77.0246 121.613 77.0468 121.731 77.0574C121.848 77.0667 121.964 77.0737 122.071 77.0843C122.172 77.0737 122.286 77.0667 122.406 77.0574C122.527 77.0468 122.704 77.0245 122.936 76.9941C122.923 77.7371 122.913 78.384 122.896 78.9313C122.883 79.4797 122.877 79.9345 122.877 80.2884C122.877 80.6986 122.883 81.0712 122.896 81.4123C122.913 81.7451 122.932 82.0604 122.967 82.344" fill="#231F20"/>
<path d="M127.73 75.3003C127.817 75.3156 127.91 75.3249 128.006 75.3249C128.106 75.3283 128.239 75.3319 128.408 75.3319C129.967 75.3319 131.128 75.0752 131.894 74.5654C132.664 74.0568 133.046 73.2833 133.046 72.2497C133.046 71.3098 132.747 70.6031 132.146 70.1285C131.548 69.648 130.656 69.4159 129.469 69.4159C129.255 69.4159 128.829 69.4322 128.193 69.4757C128.044 69.4791 127.927 69.4886 127.848 69.4943C127.807 69.8084 127.778 70.1377 127.76 70.4858C127.74 70.8303 127.73 71.2136 127.73 71.6272V72.5437L127.73 75.3003ZM125.906 82.9566C125.944 82.2218 125.973 81.3792 125.991 80.4346C126.011 79.483 126.018 77.9501 126.018 75.8218C126.018 74.0147 126.011 72.5662 125.991 71.4693C125.971 70.3782 125.938 69.4395 125.895 68.6554C125.947 68.6624 126.014 68.6671 126.096 68.6671C126.476 68.6857 126.73 68.6976 126.858 68.6976C127.115 68.6976 127.614 68.6847 128.347 68.6554C129.087 68.6272 129.701 68.6133 130.178 68.6133C131.747 68.6133 132.92 68.891 133.694 69.4547C134.472 70.0173 134.858 70.8646 134.858 72.0037C134.858 72.9916 134.498 73.8202 133.773 74.4976C133.054 75.1703 132.026 75.6308 130.69 75.8746C131.68 77.1965 133.43 79.4267 135.949 82.5558L136.262 82.9566C136.033 82.9227 135.816 82.8959 135.614 82.8806C135.409 82.8639 135.212 82.854 135.018 82.854C134.827 82.854 134.634 82.864 134.441 82.8806C134.243 82.9005 134.033 82.9274 133.81 82.9566C133.274 82.1714 132.798 81.4823 132.382 80.8987C131.966 80.3139 131.576 79.7865 131.217 79.3119L128.943 76.3762C128.828 76.2121 128.707 76.0949 128.579 76.0211C128.451 75.9496 128.299 75.9156 128.124 75.9156C128.044 75.9156 127.929 75.9239 127.78 75.9462C127.754 75.9524 127.735 75.9568 127.73 75.9568V79.7937C127.73 80.2649 127.74 80.7629 127.76 81.2856C127.779 81.8142 127.804 82.3673 127.837 82.9568C127.654 82.9229 127.485 82.896 127.33 82.8807C127.176 82.8641 127.021 82.8542 126.876 82.8542C126.726 82.8542 126.571 82.8642 126.41 82.8807C126.249 82.8974 126.08 82.9227 125.906 82.9566Z" fill="#231F20"/>
<path d="M144.923 82.4476C146.707 82.4476 148.084 81.8734 149.05 80.7307C150.011 79.5799 150.498 77.9497 150.498 75.8226C150.498 73.6604 150.026 72.015 149.075 70.8923C148.127 69.7708 146.742 69.2106 144.923 69.2106C143.127 69.2106 141.747 69.7942 140.776 70.9544C139.81 72.1182 139.325 73.7694 139.325 75.9047C139.325 78.0142 139.807 79.6315 140.773 80.7565C141.739 81.8827 143.122 82.4476 144.923 82.4476ZM144.92 83.2492C142.541 83.2492 140.669 82.5847 139.299 81.2628C137.926 79.9397 137.239 78.1325 137.239 75.8473C137.239 73.5936 137.936 71.7947 139.332 70.4446C140.728 69.0957 142.59 68.4219 144.92 68.4219C147.277 68.4219 149.138 69.0875 150.51 70.4224C151.883 71.7607 152.569 73.5679 152.569 75.8473C152.569 78.0575 151.867 79.8447 150.465 81.2042C149.064 82.5648 147.215 83.2492 144.92 83.2492Z" fill="#231F20"/>
<path d="M155.353 69.231C155.346 68.9802 155.34 68.788 155.333 68.6568C155.474 68.6873 155.62 68.706 155.769 68.7212C155.917 68.7375 156.075 68.7458 156.246 68.7458C156.45 68.7458 156.628 68.7352 156.784 68.7176C156.939 68.6989 157.086 68.6766 157.23 68.6484C157.201 70.431 157.18 72.026 157.165 73.4299C157.152 74.8316 157.145 75.7773 157.145 76.2613C157.145 77.5458 157.224 78.5197 157.384 79.1783C157.543 79.8322 157.807 80.3866 158.182 80.8378C158.559 81.3007 159.043 81.6534 159.623 81.8972C160.208 82.1351 160.867 82.2558 161.598 82.2558C162.322 82.2558 162.986 82.1315 163.58 81.8831C164.18 81.6276 164.664 81.2667 165.036 80.7979C165.409 80.3268 165.672 79.7279 165.825 78.9978C165.976 78.2724 166.054 77.0055 166.054 75.2101C166.054 74.0159 166.051 72.8791 166.031 71.7974C166.018 70.7181 165.995 69.6727 165.971 68.6566C166.07 68.6872 166.175 68.7059 166.277 68.7211C166.382 68.7374 166.491 68.7456 166.608 68.7456C166.744 68.7456 166.869 68.7373 166.977 68.7187C167.095 68.7024 167.2 68.6836 167.301 68.6566C167.267 69.4922 167.241 70.2575 167.223 70.9536C167.21 71.6521 167.2 72.1596 167.2 72.4736V73.0127C167.2 75.6789 167.135 77.4942 167.007 78.4634C166.878 79.4291 166.656 80.1897 166.346 80.7393C165.865 81.5644 165.202 82.1878 164.352 82.6062C163.501 83.0269 162.472 83.2355 161.264 83.2355C159.205 83.2355 157.703 82.7316 156.757 81.7261C155.807 80.7217 155.333 79.1209 155.333 76.9258C155.333 76.8473 155.347 76.3258 155.378 75.3636C155.404 74.4003 155.421 73.485 155.421 72.6131C155.421 71.9603 155.397 70.8307 155.353 69.231Z" fill="#231F20"/>
<path d="M172.654 75.6474C172.755 75.6536 172.873 75.658 173.006 75.6627C173.133 75.6689 173.328 75.6689 173.588 75.6689C175.072 75.6689 176.188 75.4017 176.93 74.8602C177.672 74.3247 178.045 73.5125 178.045 72.4355C178.045 71.355 177.733 70.5756 177.11 70.101C176.488 69.6217 175.462 69.3849 174.038 69.3849C173.766 69.3849 173.36 69.4072 172.822 69.4553L172.771 69.4659C172.771 69.9077 172.748 70.6062 172.706 71.5613C172.665 72.5153 172.644 73.2524 172.644 73.7704L172.654 75.6474ZM170.871 82.9568C170.904 81.8036 170.929 80.6329 170.954 79.4422C170.978 78.2456 170.987 77.0444 170.987 75.8232C170.987 74.54 170.978 73.3071 170.954 72.1152C170.928 70.9234 170.901 69.7643 170.861 68.6404C171.037 68.6733 171.21 68.692 171.378 68.7049C171.55 68.7202 171.716 68.7285 171.886 68.7285C172.21 68.7285 172.759 68.704 173.524 68.6559C174.293 68.6032 174.901 68.582 175.355 68.582C176.838 68.582 177.98 68.8996 178.787 69.536C179.597 70.1747 180 71.0759 180 72.2408C180 73.5944 179.503 74.6374 178.507 75.3711C177.516 76.1023 176.092 76.4703 174.247 76.4703C174.056 76.4703 173.828 76.4642 173.561 76.454C173.297 76.4424 172.99 76.4295 172.654 76.4072L172.644 79.4026C172.644 79.8316 172.654 80.3378 172.67 80.9238C172.69 81.5109 172.718 82.1813 172.758 82.936C172.528 82.9028 172.353 82.8822 172.233 82.8679C172.113 82.8611 171.998 82.8513 171.899 82.8513C171.745 82.8513 171.581 82.8613 171.413 82.8812C171.238 82.8978 171.058 82.921 170.869 82.9563" fill="#231F20"/>
<path d="M115.165 56.2389H60.1094V0.398438H115.165V56.2389Z" fill="white"/>
<path fill-rule="evenodd" clip-rule="evenodd" d="M61.9998 49.0681V56.3798H59.9289V53.1324C60.474 51.1518 61.3534 49.8205 61.9998 49.0681ZM59.9289 0.317907L61.9998 0.27924V37.4882C60.8106 38.5102 60.0314 39.6387 60.0314 39.6387C60.0314 39.6387 59.9964 40.1849 59.9287 41.0708L59.9289 0.317907ZM61.9998 56.3798H64.0719C61.4233 54.4661 62.8489 48.2841 62.8489 48.2841C62.8489 48.2841 62.51 48.5208 61.9998 49.0681V56.3798ZM61.9998 0.27924L116.33 0.25C106.312 7.93556 98.5032 18.9365 97.8532 31.6813C97.2126 44.6266 106.481 50.573 110.999 52.3156C110.758 49.1045 110.655 46.2661 110.625 43.7066C109.502 42.1678 106.988 37.9336 106.888 30.0746C108.313 36.6668 108.824 38.7528 110.655 41.4834C110.757 33.3525 111.914 28.0565 113.509 21.2253C113.172 23.6852 113 26.4873 112.931 29.3902C113.646 28.8441 115.312 27.3405 116.33 25.5287V25.974C115.99 27.0323 114.762 29.0832 112.931 30.1414C112.761 41.2127 114.084 53.7126 114.424 56.3799H85.4253C85.3956 55.8338 85.3599 54.8435 85.3599 53.6469C95.4129 50.4019 94.4939 37.657 94.4939 37.657C94.4939 37.657 94.3262 27.2034 89.503 21.1245C83.5231 24.3685 74.8725 33.1463 74.7665 41.7588C74.6652 50.3655 80.1652 53.7126 81.9985 54.2622C81.9687 53.0997 81.6944 44.9711 83.4265 38.8887C83.2855 49.6178 83.7305 54.4661 83.9681 56.3799H68.2835C73.4795 53.7829 73.9512 42.8815 69.8443 37.827C66.9918 34.3791 63.9368 35.8112 61.9998 37.4882V0.27924Z" fill="#EC1C24"/>
</svg>
