<svg width="180" height="83" viewBox="0 0 180 83" fill="none" xmlns="http://www.w3.org/2000/svg">
<path d="M144.53 13.3749C143.03 13.9057 141.618 14.5249 140.206 15.1441C129.177 20.0093 119.559 27.5281 112.236 36.9046C112.148 36.9931 112.059 37.17 111.971 37.2584C111.971 37.3469 111.883 37.4354 111.883 37.5238C112.853 40.5314 114.353 43.2735 116.206 45.7504C117.353 43.9812 118.589 42.389 119.912 40.7083C120.442 40.0891 120.971 39.4699 121.5 38.8507C127.059 32.5702 134.118 27.2628 141.971 23.5475C141.883 25.4936 141.618 27.2628 141 29.0319C141.265 28.6781 141.53 28.2358 141.795 27.882C141.883 27.7935 141.883 27.705 141.971 27.705C142.236 27.3512 142.412 26.9089 142.677 26.5551C142.677 26.4666 142.765 26.3782 142.765 26.2897C143.03 25.8474 143.206 25.4936 143.383 25.0513C143.559 24.609 143.736 24.1667 143.912 23.7245C143.912 23.636 143.912 23.636 144 23.5475C144.177 23.1937 144.265 22.7514 144.442 22.3976C145.324 19.8323 145.765 17.1786 145.765 14.348C145.853 13.6403 145.148 13.198 144.53 13.3749Z" fill="url(#paint0_linear_178_2506)"/>
<path d="M178.411 14.1716C173.382 15.0561 168.441 16.383 163.764 18.0637C146.294 24.3442 131.117 35.5782 120.088 50.1737C122.823 52.5621 126.088 54.4197 129.617 55.5696C138.97 43.6279 151.5 34.3398 165.882 28.9439V29.0324C165.882 40.7088 158.735 50.616 148.676 54.862C149.029 54.685 149.47 54.5081 149.823 54.3312C149.911 54.2428 150.088 54.2428 150.176 54.1543C150.441 54.0658 150.706 53.8889 150.97 53.8005C151.147 53.712 151.323 53.6236 151.411 53.6236C151.676 53.5351 151.853 53.4466 152.117 53.2697C152.294 53.1813 152.47 53.0928 152.647 53.0044C152.823 52.9159 153.088 52.8274 153.264 52.6505C153.441 52.5621 153.617 52.4736 153.794 52.3852C153.97 52.2967 154.235 52.1198 154.411 52.0313C154.588 51.9429 154.764 51.8544 154.941 51.7659C155.117 51.6775 155.382 51.5006 155.558 51.4121C155.735 51.3237 155.911 51.2352 156.088 51.1467C156.264 51.0583 156.529 50.8814 156.706 50.7929C156.882 50.7045 157.058 50.616 157.235 50.4391C157.411 50.3506 157.588 50.1737 157.853 50.0853C158.029 49.9968 158.206 49.9083 158.294 49.7314C158.47 49.643 158.647 49.4661 158.911 49.3776C159.088 49.2891 159.264 49.1122 159.353 49.0238C159.529 48.8469 159.706 48.7584 159.882 48.5815C160.058 48.493 160.235 48.3161 160.323 48.2277C160.5 48.0507 160.676 47.9623 160.853 47.7854C161.029 47.6969 161.117 47.52 161.294 47.4315C161.47 47.2546 161.647 47.1662 161.823 46.9893C162 46.9008 162.088 46.7239 162.264 46.6354C162.441 46.4585 162.617 46.2816 162.794 46.1931C162.97 46.1047 163.058 45.9278 163.235 45.8393C163.411 45.6624 163.588 45.4855 163.764 45.3086C163.853 45.2201 164.029 45.0432 164.117 44.9547C164.294 44.7778 164.47 44.6009 164.735 44.424C164.823 44.3355 165 44.2471 165.088 44.0702C165.353 43.8048 165.529 43.6279 165.794 43.3625C165.882 43.274 165.882 43.274 165.97 43.1856C166.235 42.9202 166.588 42.5664 166.853 42.301C166.941 42.2126 167.029 42.1241 167.117 42.0356C167.294 41.7703 167.558 41.5934 167.735 41.328C167.823 41.2395 167.911 41.0626 168.088 40.9741C168.264 40.7972 168.441 40.6203 168.617 40.3549C168.706 40.178 168.882 40.0896 168.97 39.9127C169.147 39.7357 169.323 39.5588 169.411 39.2935C169.5 39.1165 169.676 39.0281 169.764 38.8512C169.941 38.6743 170.029 38.4973 170.206 38.3204C170.294 38.1435 170.47 38.0551 170.558 37.8781C170.735 37.7012 170.823 37.5243 171 37.3474C171.088 37.1705 171.264 36.9936 171.353 36.9051C171.529 36.7282 171.617 36.5513 171.794 36.2859C171.882 36.109 171.97 35.9321 172.147 35.8436C172.235 35.6667 172.411 35.4898 172.5 35.2244C172.588 35.0475 172.676 34.8706 172.853 34.6937C172.941 34.5168 173.117 34.3398 173.206 34.0745C173.294 33.8976 173.382 33.7206 173.47 33.5437C173.558 33.3668 173.735 33.1014 173.823 32.9245C173.911 32.7476 174 32.5707 174.088 32.3938C174.176 32.2169 174.353 31.9515 174.441 31.7746C174.529 31.5977 174.617 31.4207 174.706 31.2438C174.794 31.0669 174.882 30.8015 175.058 30.6246C175.147 30.4477 175.235 30.2708 175.323 30.0939C175.411 29.917 175.5 29.6516 175.676 29.4747C175.764 29.2978 175.853 29.1209 175.941 28.9439C176.029 28.6786 176.117 28.5017 176.206 28.2363C176.294 28.0594 176.382 27.8825 176.47 27.7055V27.6171C176.823 26.9094 177.088 26.1133 177.353 25.4056C178.5 22.3096 179.382 19.0367 179.911 15.5869C180.088 14.7908 179.294 14.0831 178.411 14.1716Z" fill="url(#paint1_linear_178_2506)"/>
<path d="M157.853 8.4202C155.029 5.76648 151.676 3.73196 148.147 2.4051C144.617 1.07824 140.735 0.547492 137.029 0.724407C133.323 0.901322 129.617 1.7859 126.353 3.37813C123 4.97036 120.088 7.09334 117.617 9.74706C112.676 15.0545 110.029 22.1311 110.206 29.2077C110.206 31.5076 110.558 33.8075 111.176 36.0189C111.97 34.9574 112.853 33.9844 113.735 32.9229C113.558 31.6845 113.47 30.4461 113.47 29.1192C113.47 27.527 113.647 26.0232 114 24.5194C114.353 23.0157 114.794 21.5119 115.5 20.185C116.735 17.3544 118.588 14.8776 120.794 12.8431C123 10.8085 125.647 9.21632 128.47 8.24329C131.294 7.27025 134.206 6.82797 137.117 7.00488C140.029 7.1818 142.853 7.97791 145.323 9.12786C147.882 10.3663 150.088 12.047 152.029 14.0815C152.735 14.7891 153.353 15.5852 153.882 16.4698C156.529 15.2314 159.264 14.0815 162.088 13.1084C160.853 11.6047 159.441 9.92398 157.853 8.4202Z" fill="url(#paint2_linear_178_2506)"/>
<path d="M145.853 14.3464C145.853 17.1771 145.412 19.9192 144.53 22.3961C144.441 22.7499 144.265 23.1037 144.088 23.4575C144.177 23.0153 143.735 22.6614 143.383 22.8383C142.941 23.0153 142.5 23.2806 141.971 23.4575C134.118 27.2612 127.059 32.5687 121.324 39.026C120.794 39.6452 120.265 40.2644 119.735 40.8836C118.412 42.4759 117.177 44.1566 116.03 45.9257C114.177 43.4489 112.677 40.7067 111.706 37.6992C111.706 37.6107 111.794 37.5223 111.794 37.4338C111.883 37.3454 111.971 37.1684 112.059 37.08C119.383 27.7035 129 20.1846 140.03 15.3195C141.441 14.7003 142.941 14.0811 144.353 13.5503C145.147 13.1965 145.853 13.6388 145.853 14.3464Z" fill="url(#paint3_linear_178_2506)"/>
<path d="M180 15.6731C179.471 19.0345 178.589 22.3074 177.441 25.4919C177.177 26.288 176.824 26.9957 176.559 27.7918C176.912 26.8188 176.118 25.8457 175.147 26.1111C172.059 26.9072 169.059 27.8803 166.059 28.9417C151.589 34.3377 139.059 43.6257 129.706 55.5674C126.177 54.4175 122.912 52.5599 120.177 50.1715C131.206 35.5761 146.383 24.342 163.853 18.0615C168.53 16.3808 173.471 15.0539 178.5 14.1694C179.294 13.9925 180.089 14.7886 180 15.6731Z" fill="url(#paint4_linear_178_2506)"/>
<path d="M6.61765 55.5681V38.0535H0V35.4883H16.1471V38.0535H9.52941V53.5336C9.52941 54.6835 8.64706 55.5681 7.5 55.5681H6.61765Z" fill="#CE7A23"/>
<path d="M30.7941 47.7825L31.3235 47.6056C34.3235 46.721 35.9999 44.598 35.9999 41.6789V41.5905C35.9999 39.9098 35.4705 38.406 34.4117 37.3445C33.0882 36.0176 31.147 35.3984 28.6764 35.3984H19.7646V55.5667H20.647C21.7941 55.5667 22.6764 54.6821 22.6764 53.5322V37.9637H28.4117C31.4117 37.9637 33.1764 39.379 33.1764 41.8558V41.9443C33.1764 44.3326 31.3235 45.8364 28.4999 45.8364H26.2058L27.9705 48.3132L30.1764 51.4092L32.4705 54.7706C32.8235 55.3013 33.4411 55.6552 34.147 55.6552H36.4411L30.7941 47.7825Z" fill="#CE7A23"/>
<path d="M78.4411 55.5681L66.3528 39.9112V53.5336C66.3528 54.6835 65.4705 55.5681 64.3234 55.5681H63.5293V37.0805C63.5293 36.1959 64.2352 35.4883 65.1175 35.4883H66.2646L78.0881 50.7914V37.5228C78.0881 36.3729 78.9705 35.4883 80.1175 35.4883H80.9116V53.9759C80.9116 54.8605 80.2058 55.5681 79.3234 55.5681H78.4411Z" fill="#CE7A23"/>
<path d="M94.0591 55.833C91.0591 55.833 88.2355 54.7715 85.9414 52.8254L86.3826 52.2062C87.0002 51.4101 88.1473 51.2332 88.9414 51.7639C90.6179 52.8254 92.2061 53.2677 94.1473 53.2677C96.6179 53.2677 98.2943 52.1178 98.2943 50.2602V50.1717C98.2943 48.3141 97.059 47.4295 93.2649 46.5449C88.8532 45.4835 86.6473 44.2451 86.6473 40.7068V40.6183C86.6473 37.2569 89.3826 34.957 93.3532 34.957C96.0885 34.957 98.2943 35.6647 100.412 37.2569L99.9708 37.8761C99.3532 38.6722 98.2943 38.9376 97.412 38.4953C96.0002 37.7877 94.6767 37.4338 93.2649 37.4338C91.059 37.4338 89.4708 38.5838 89.4708 40.3529V40.5298C89.4708 42.6528 91.0591 43.3605 94.7649 44.2451C99.3532 45.395 101.206 46.9872 101.206 49.9948V50.0832C101.118 53.5331 98.2943 55.833 94.0591 55.833Z" fill="#CE7A23"/>
<path d="M56.3826 54.3308L49.5885 38.2316L42.7943 54.3308C42.4414 55.0385 41.7355 55.5692 40.9414 55.5692H39.4414L47.8238 36.2855C48.0885 35.6663 48.7061 35.3125 49.3238 35.3125H51.1767L60.0002 55.5692H58.2355C57.4414 55.5692 56.6473 55.0385 56.3826 54.3308Z" fill="#CE7A23"/>
<path d="M47.0294 81.4871L40.2353 65.3878L33.4412 81.4871C33.0882 82.1947 32.3824 82.7255 31.5882 82.7255H30L38.3824 63.4418C38.6471 62.8226 39.1765 62.4688 39.8824 62.4688H41.7353L50.5588 82.7255H48.8824C48.0882 82.7255 47.3824 82.1947 47.0294 81.4871Z" fill="#004876"/>
<path d="M23.4701 82.723V66.8006L16.4113 77.3271L9.44072 66.8006V80.6885C9.44072 81.8384 8.55836 82.723 7.4113 82.723H6.61719V62.5547H9.88189L16.4995 72.8157L23.1172 62.5547H26.3819V80.6885C26.3819 81.8384 25.4995 82.723 24.3525 82.723H23.4701Z" fill="#004876"/>
<path d="M65.2941 74.9387L65.8235 74.7618C68.8235 73.8772 70.4999 71.7543 70.4999 68.8352V68.7467C70.4999 67.066 69.9705 65.5622 68.9117 64.5007C67.5882 63.1739 65.5588 62.5547 63.1764 62.5547H54.2646V82.723H55.147C56.2941 82.723 57.1764 81.8384 57.1764 80.6885V65.12H62.9117C65.9117 65.12 67.6764 66.5353 67.6764 69.0121V69.1005C67.6764 71.4889 65.8235 72.9927 62.9999 72.9927H60.7058L62.4705 75.4695L66.9705 81.9269C67.3235 82.4576 67.9411 82.8114 68.647 82.8114H70.9411L65.2941 74.9387Z" fill="#004876"/>
<path d="M75.0879 82.723V62.5547H77.9114V80.6885C77.9114 81.8384 77.0291 82.723 75.882 82.723H75.0879Z" fill="#004876"/>
<path d="M88.5005 82.723V65.12H81.8828V62.5547H98.0299V65.12H91.4122V80.6C91.4122 81.7499 90.5299 82.6345 89.3828 82.6345H88.5005V82.723Z" fill="#004876"/>
<path d="M102 82.723V62.5547H104.824V80.6885C104.824 81.8384 103.941 82.723 102.794 82.723H102Z" fill="#004876"/>
<path d="M127.147 82.723V66.8006L120.088 77.3271L113.117 66.8006V80.6885C113.117 81.8384 112.235 82.723 111.088 82.723H110.294V62.5547H113.559L120.176 72.8157L126.794 62.5547H130.059V80.6885C130.059 81.8384 129.176 82.723 128.029 82.723H127.147Z" fill="#004876"/>
<defs>
<linearGradient id="paint0_linear_178_2506" x1="128.797" y1="45.8387" x2="128.797" y2="13.3576" gradientUnits="userSpaceOnUse">
<stop stop-color="#FBB15B"/>
<stop offset="1" stop-color="#CB7718"/>
</linearGradient>
<linearGradient id="paint1_linear_178_2506" x1="149.608" y1="55.9434" x2="150.423" y2="13.6372" gradientUnits="userSpaceOnUse">
<stop stop-color="#427BBF"/>
<stop offset="0.1742" stop-color="#3E74B2"/>
<stop offset="0.4519" stop-color="#2F649B"/>
<stop offset="0.7965" stop-color="#104D7B"/>
<stop offset="0.8601" stop-color="#0A4976"/>
</linearGradient>
<linearGradient id="paint2_linear_178_2506" x1="113.282" y1="38.2293" x2="150.537" y2="1.0685" gradientUnits="userSpaceOnUse">
<stop stop-color="#CD7A29"/>
<stop offset="1" stop-color="#FBB15B"/>
</linearGradient>
<linearGradient id="paint3_linear_178_2506" x1="114.112" y1="43.8932" x2="144.987" y2="13.095" gradientUnits="userSpaceOnUse">
<stop stop-color="#CD7A29"/>
<stop offset="1" stop-color="#FBB15B"/>
</linearGradient>
<linearGradient id="paint4_linear_178_2506" x1="120.108" y1="34.8681" x2="179.995" y2="34.8681" gradientUnits="userSpaceOnUse">
<stop stop-color="#0A4976"/>
<stop offset="1" stop-color="#427BBF"/>
</linearGradient>
</defs>
</svg>
